<?xml version="1.0" encoding="UTF-8"?>
<svg width="1200pt" height="1200pt" version="1.1" viewBox="0 0 1200 1200" xmlns="http://www.w3.org/2000/svg">
 <path d="m214.31 579.84h49.453c8.3906 0 15.844 5.3906 18.141 13.219 6.8438 23.156 16.078 45.469 27.703 66.609 3.8438 7.2188 2.5312 16.219-3.375 22.219l-35.062 34.922c-7.9219 8.0625-12.469 18.703-12.469 30.141 0 11.391 4.4531 22.078 12.469 30l52.312 52.312c16.078 16.078 44.156 16.078 60.234 0l34.922-35.062c6-5.8594 15-7.3125 22.219-3.375 21.141 11.625 43.547 21 66.609 27.703 7.7812 2.2969 13.219 9.6094 13.219 18.141v49.453c0 23.531 19.078 42.609 42.609 42.609h73.922c23.531 0 42.609-19.078 42.609-42.609v-49.453c0-8.3906 5.3906-15.844 13.219-18.141 23.156-6.7031 45.469-16.078 66.609-27.703 7.2188-3.8438 16.219-2.5312 22.219 3.375l34.922 35.062c16.078 16.078 44.156 16.078 60.234 0l52.312-52.312c7.9219-7.9219 12.469-18.703 12.469-30s-4.4531-22.078-12.469-30.141l-35.062-34.922c-5.8594-6-7.3125-15-3.375-22.219 11.625-21.141 20.859-43.547 27.703-66.609 2.2969-7.7812 9.6094-13.219 18.141-13.219h49.453c23.531 0 42.609-19.078 42.609-42.609v-73.922c0-23.531-19.078-42.609-42.609-42.609h-49.453c-8.3906 0-15.844-5.3906-18.141-13.219-6.8438-23.156-16.078-45.469-27.703-66.609-3.8438-7.2188-2.5312-16.219 3.375-22.219l35.062-34.922c7.9219-8.0625 12.469-18.703 12.469-30.141 0-11.391-4.4531-22.078-12.469-30l-52.312-52.312c-16.078-16.078-44.156-16.078-60.234 0l-34.922 35.062c-6 5.8594-15 7.3125-22.219 3.375-21.141-11.625-43.547-21-66.609-27.703-7.7812-2.2969-13.219-9.6094-13.219-18.141v-49.453c0-23.531-19.078-42.609-42.609-42.609h-73.922c-23.531 0-42.609 19.078-42.609 42.609v49.453c0 8.3906-5.3906 15.844-13.219 18.141-23.156 6.7031-45.469 16.078-66.609 27.703-7.2188 3.8438-16.219 2.5312-22.219-3.375l-34.922-35.062c-16.078-16.078-44.156-16.078-60.234 0l-52.312 52.312c-7.9219 7.9219-12.469 18.703-12.469 30s4.4531 22.078 12.469 30.141l35.062 34.922c5.8594 6 7.3125 15 3.375 22.219-11.625 21.141-20.859 43.547-27.703 66.609-2.2969 7.7812-9.6094 13.219-18.141 13.219h-49.453c-23.531 0-42.609 19.078-42.609 42.609v73.922c0 23.531 19.078 42.609 42.609 42.609zm-19.078-116.53c0-10.547 8.5312-19.078 19.078-19.078h49.453c18.703 0 35.391-12.375 40.547-30 6.2344-21.469 14.859-42.234 25.688-61.922 8.8594-16.219 5.8594-36.703-7.4531-50.062l-34.922-35.062c-3.6094-3.4688-5.625-8.2969-5.625-13.453s2.0625-9.8438 5.625-13.453l52.219-52.219c7.3125-7.3125 19.781-7.3125 27 0l35.062 34.922c13.219 13.219 33.844 16.312 50.062 7.4531 19.688-10.781 40.453-19.453 61.922-25.688 17.766-5.1562 30-21.844 30-40.547v-49.453c0-10.547 8.5312-19.078 19.078-19.078h73.922c10.547 0 19.078 8.5312 19.078 19.078v49.453c0 18.703 12.375 35.391 30 40.547 21.469 6.2344 42.234 14.859 61.922 25.688 16.219 8.8594 36.703 5.8594 50.062-7.4531l35.062-34.922c7.2188-7.3125 19.688-7.3125 27 0l52.219 52.219c3.6094 3.6094 5.625 8.3906 5.625 13.453s-2.0625 9.9375-5.625 13.453l-34.922 35.062c-13.219 13.219-16.312 33.844-7.4531 50.062 10.781 19.688 19.453 40.453 25.688 61.922 5.1562 17.766 21.844 30 40.547 30h49.453c10.547 0 19.078 8.5312 19.078 19.078v73.922c0 10.547-8.5312 19.078-19.078 19.078h-49.453c-18.703 0-35.391 12.375-40.547 30-6.2344 21.469-14.859 42.234-25.688 61.922-8.8594 16.219-5.8594 36.703 7.4531 50.062l34.922 35.062c3.6094 3.4688 5.625 8.2969 5.625 13.453s-2.0625 9.8438-5.625 13.453l-52.219 52.219c-7.3125 7.3125-19.781 7.3125-27 0l-35.062-34.922c-13.219-13.219-33.844-16.312-50.062-7.4531-19.688 10.781-40.453 19.453-61.922 25.688-17.766 5.1562-30 21.844-30 40.547v49.453c0 10.547-8.5312 19.078-19.078 19.078h-73.922c-10.547 0-19.078-8.5312-19.078-19.078v-49.453c0-18.703-12.375-35.391-30-40.547-21.469-6.2344-42.234-14.859-61.922-25.688-6.2344-3.375-13.078-5.0625-19.781-5.0625-11.062 0-21.938 4.2188-30.141 12.469l-35.062 34.922c-7.2188 7.3125-19.688 7.3125-27 0l-52.219-52.219c-3.6094-3.6094-5.625-8.3906-5.625-13.453s2.0625-9.9375 5.625-13.453l34.922-35.062c13.219-13.219 16.312-33.844 7.4531-50.062-10.781-19.688-19.453-40.453-25.688-61.922-5.1562-17.766-21.844-30-40.547-30h-49.453c-10.547 0-19.078-8.5312-19.078-19.078v-73.922z"/>
 <path d="m600 705c112.92 0 204.71-91.922 204.71-204.71 0-112.78-91.922-204.71-204.71-204.71s-204.71 91.922-204.71 204.71c0 112.78 91.922 204.71 204.71 204.71zm0-386.06c99.938 0 181.31 81.375 181.31 181.31s-81.375 181.31-181.31 181.31-181.31-81.375-181.31-181.31 81.375-181.31 181.31-181.31z"/>
 <path d="m142.45 1128h915.1c38.859 0 70.453-31.547 70.453-70.453 0-38.859-31.547-70.453-70.453-70.453l-915.1 0.046875c-38.859 0-70.453 31.547-70.453 70.453 0 38.859 31.547 70.453 70.453 70.453zm721.08-117.38h194.06c25.922 0 46.922 21 46.922 46.922s-21 46.922-46.922 46.922h-194.06c11.156-12.469 18.141-28.922 18.141-46.922s-6.9375-34.453-18.141-46.922zm-721.08 0h668.76c25.922 0 46.922 21 46.922 46.922s-21 46.922-46.922 46.922h-668.76c-25.922 0-46.922-21-46.922-46.922s21-46.922 46.922-46.922z"/>
</svg>
